<mxfile host="app.diagrams.net" modified="2023-03-01T08:01:49.029Z" agent="5.0 (Windows NT 10.0; Win64; x64) AppleWebKit/537.36 (KHTML, like Gecko) Chrome/109.0.0.0 Safari/537.36" etag="29Ynk3G79lIjz8_-ihHd" version="20.8.23" type="github">
  <diagram id="C5RBs43oDa-KdzZeNtuy" name="Page-1">
    <mxGraphModel dx="2833" dy="1645" grid="1" gridSize="10" guides="1" tooltips="1" connect="1" arrows="1" fold="1" page="1" pageScale="1" pageWidth="827" pageHeight="1169" math="0" shadow="0">
      <root>
        <mxCell id="WIyWlLk6GJQsqaUBKTNV-0" />
        <mxCell id="WIyWlLk6GJQsqaUBKTNV-1" parent="WIyWlLk6GJQsqaUBKTNV-0" />
        <mxCell id="yQq68o5WZJDf7F2LKcGU-19" value="StyleComponent" style="swimlane;fontStyle=1;align=center;verticalAlign=top;childLayout=stackLayout;horizontal=1;startSize=26;horizontalStack=0;resizeParent=1;resizeParentMax=0;resizeLast=0;collapsible=1;marginBottom=0;" vertex="1" parent="WIyWlLk6GJQsqaUBKTNV-1">
          <mxGeometry x="270" y="190" width="210" height="112" as="geometry" />
        </mxCell>
        <mxCell id="yQq68o5WZJDf7F2LKcGU-20" value="" style="line;strokeWidth=1;fillColor=none;align=left;verticalAlign=middle;spacingTop=-1;spacingLeft=3;spacingRight=3;rotatable=0;labelPosition=right;points=[];portConstraint=eastwest;strokeColor=inherit;" vertex="1" parent="yQq68o5WZJDf7F2LKcGU-19">
          <mxGeometry y="26" width="210" height="8" as="geometry" />
        </mxCell>
        <mxCell id="yQq68o5WZJDf7F2LKcGU-21" value="add(wc：StyleComponent)" style="text;strokeColor=none;fillColor=none;align=left;verticalAlign=top;spacingLeft=4;spacingRight=4;overflow=hidden;rotatable=0;points=[[0,0.5],[1,0.5]];portConstraint=eastwest;" vertex="1" parent="yQq68o5WZJDf7F2LKcGU-19">
          <mxGeometry y="34" width="210" height="26" as="geometry" />
        </mxCell>
        <mxCell id="yQq68o5WZJDf7F2LKcGU-22" value="remove(wc：StyleComponent)" style="text;strokeColor=none;fillColor=none;align=left;verticalAlign=top;spacingLeft=4;spacingRight=4;overflow=hidden;rotatable=0;points=[[0,0.5],[1,0.5]];portConstraint=eastwest;" vertex="1" parent="yQq68o5WZJDf7F2LKcGU-19">
          <mxGeometry y="60" width="210" height="26" as="geometry" />
        </mxCell>
        <mxCell id="yQq68o5WZJDf7F2LKcGU-38" value="wordToImage(word:String)" style="text;strokeColor=none;fillColor=none;align=left;verticalAlign=top;spacingLeft=4;spacingRight=4;overflow=hidden;rotatable=0;points=[[0,0.5],[1,0.5]];portConstraint=eastwest;" vertex="1" parent="yQq68o5WZJDf7F2LKcGU-19">
          <mxGeometry y="86" width="210" height="26" as="geometry" />
        </mxCell>
        <mxCell id="yQq68o5WZJDf7F2LKcGU-24" value="词组的抽象" style="shape=note;whiteSpace=wrap;html=1;backgroundOutline=1;darkOpacity=0.05;" vertex="1" parent="WIyWlLk6GJQsqaUBKTNV-1">
          <mxGeometry x="600" y="90" width="80" height="100" as="geometry" />
        </mxCell>
        <mxCell id="yQq68o5WZJDf7F2LKcGU-25" value="" style="endArrow=none;dashed=1;html=1;dashPattern=1 3;strokeWidth=2;rounded=0;" edge="1" parent="WIyWlLk6GJQsqaUBKTNV-1" source="yQq68o5WZJDf7F2LKcGU-19" target="yQq68o5WZJDf7F2LKcGU-24">
          <mxGeometry width="50" height="50" relative="1" as="geometry">
            <mxPoint x="470" y="250" as="sourcePoint" />
            <mxPoint x="520" y="200" as="targetPoint" />
          </mxGeometry>
        </mxCell>
        <mxCell id="yQq68o5WZJDf7F2LKcGU-26" value="StyleWord" style="swimlane;fontStyle=1;align=center;verticalAlign=top;childLayout=stackLayout;horizontal=1;startSize=26;horizontalStack=0;resizeParent=1;resizeParentMax=0;resizeLast=0;collapsible=1;marginBottom=0;" vertex="1" parent="WIyWlLk6GJQsqaUBKTNV-1">
          <mxGeometry x="140" y="400" width="160" height="86" as="geometry" />
        </mxCell>
        <mxCell id="yQq68o5WZJDf7F2LKcGU-27" value=" word: String" style="text;strokeColor=none;fillColor=none;align=left;verticalAlign=top;spacingLeft=4;spacingRight=4;overflow=hidden;rotatable=0;points=[[0,0.5],[1,0.5]];portConstraint=eastwest;" vertex="1" parent="yQq68o5WZJDf7F2LKcGU-26">
          <mxGeometry y="26" width="160" height="26" as="geometry" />
        </mxCell>
        <mxCell id="yQq68o5WZJDf7F2LKcGU-28" value="" style="line;strokeWidth=1;fillColor=none;align=left;verticalAlign=middle;spacingTop=-1;spacingLeft=3;spacingRight=3;rotatable=0;labelPosition=right;points=[];portConstraint=eastwest;strokeColor=inherit;" vertex="1" parent="yQq68o5WZJDf7F2LKcGU-26">
          <mxGeometry y="52" width="160" height="8" as="geometry" />
        </mxCell>
        <mxCell id="yQq68o5WZJDf7F2LKcGU-39" value="wordToImage(word:String)" style="text;strokeColor=none;fillColor=none;align=left;verticalAlign=top;spacingLeft=4;spacingRight=4;overflow=hidden;rotatable=0;points=[[0,0.5],[1,0.5]];portConstraint=eastwest;" vertex="1" parent="yQq68o5WZJDf7F2LKcGU-26">
          <mxGeometry y="60" width="160" height="26" as="geometry" />
        </mxCell>
        <mxCell id="yQq68o5WZJDf7F2LKcGU-30" value="Extends" style="endArrow=block;endSize=16;endFill=0;html=1;rounded=0;exitX=0.5;exitY=0;exitDx=0;exitDy=0;" edge="1" parent="WIyWlLk6GJQsqaUBKTNV-1" source="yQq68o5WZJDf7F2LKcGU-26">
          <mxGeometry width="160" relative="1" as="geometry">
            <mxPoint x="350" y="400" as="sourcePoint" />
            <mxPoint x="356.8468468468468" y="302" as="targetPoint" />
          </mxGeometry>
        </mxCell>
        <mxCell id="yQq68o5WZJDf7F2LKcGU-31" value="StyleComposite" style="swimlane;fontStyle=1;align=center;verticalAlign=top;childLayout=stackLayout;horizontal=1;startSize=26;horizontalStack=0;resizeParent=1;resizeParentMax=0;resizeLast=0;collapsible=1;marginBottom=0;" vertex="1" parent="WIyWlLk6GJQsqaUBKTNV-1">
          <mxGeometry x="420" y="400" width="220" height="164" as="geometry" />
        </mxCell>
        <mxCell id="yQq68o5WZJDf7F2LKcGU-32" value="wordChildren:List&lt;WordComponent&gt;" style="text;strokeColor=none;fillColor=none;align=left;verticalAlign=top;spacingLeft=4;spacingRight=4;overflow=hidden;rotatable=0;points=[[0,0.5],[1,0.5]];portConstraint=eastwest;" vertex="1" parent="yQq68o5WZJDf7F2LKcGU-31">
          <mxGeometry y="26" width="220" height="26" as="geometry" />
        </mxCell>
        <mxCell id="yQq68o5WZJDf7F2LKcGU-45" value=" word: String" style="text;strokeColor=none;fillColor=none;align=left;verticalAlign=top;spacingLeft=4;spacingRight=4;overflow=hidden;rotatable=0;points=[[0,0.5],[1,0.5]];portConstraint=eastwest;" vertex="1" parent="yQq68o5WZJDf7F2LKcGU-31">
          <mxGeometry y="52" width="220" height="26" as="geometry" />
        </mxCell>
        <mxCell id="yQq68o5WZJDf7F2LKcGU-33" value="" style="line;strokeWidth=1;fillColor=none;align=left;verticalAlign=middle;spacingTop=-1;spacingLeft=3;spacingRight=3;rotatable=0;labelPosition=right;points=[];portConstraint=eastwest;strokeColor=inherit;" vertex="1" parent="yQq68o5WZJDf7F2LKcGU-31">
          <mxGeometry y="78" width="220" height="8" as="geometry" />
        </mxCell>
        <mxCell id="yQq68o5WZJDf7F2LKcGU-34" value="add(wc：StyleComponent)" style="text;strokeColor=none;fillColor=none;align=left;verticalAlign=top;spacingLeft=4;spacingRight=4;overflow=hidden;rotatable=0;points=[[0,0.5],[1,0.5]];portConstraint=eastwest;" vertex="1" parent="yQq68o5WZJDf7F2LKcGU-31">
          <mxGeometry y="86" width="220" height="26" as="geometry" />
        </mxCell>
        <mxCell id="yQq68o5WZJDf7F2LKcGU-36" value="remove(wc：StyleComponent)" style="text;strokeColor=none;fillColor=none;align=left;verticalAlign=top;spacingLeft=4;spacingRight=4;overflow=hidden;rotatable=0;points=[[0,0.5],[1,0.5]];portConstraint=eastwest;" vertex="1" parent="yQq68o5WZJDf7F2LKcGU-31">
          <mxGeometry y="112" width="220" height="26" as="geometry" />
        </mxCell>
        <mxCell id="yQq68o5WZJDf7F2LKcGU-35" value="wordToImage(word:String)" style="text;strokeColor=none;fillColor=none;align=left;verticalAlign=top;spacingLeft=4;spacingRight=4;overflow=hidden;rotatable=0;points=[[0,0.5],[1,0.5]];portConstraint=eastwest;" vertex="1" parent="yQq68o5WZJDf7F2LKcGU-31">
          <mxGeometry y="138" width="220" height="26" as="geometry" />
        </mxCell>
        <mxCell id="yQq68o5WZJDf7F2LKcGU-37" value="Extends" style="endArrow=block;endSize=16;endFill=0;html=1;rounded=0;exitX=0.5;exitY=0;exitDx=0;exitDy=0;" edge="1" parent="WIyWlLk6GJQsqaUBKTNV-1" source="yQq68o5WZJDf7F2LKcGU-31">
          <mxGeometry width="160" relative="1" as="geometry">
            <mxPoint x="550" y="370" as="sourcePoint" />
            <mxPoint x="393.1531531531532" y="302" as="targetPoint" />
          </mxGeometry>
        </mxCell>
        <mxCell id="yQq68o5WZJDf7F2LKcGU-40" value="wordToImage(word:String)&lt;br&gt;for(child:wordChildren){&lt;br&gt;child.wordToImage(joinWord)&lt;br&gt;}&lt;br&gt;入参为从根节点word到本节点word的构成的word词组" style="shape=note;whiteSpace=wrap;html=1;backgroundOutline=1;darkOpacity=0.05;" vertex="1" parent="WIyWlLk6GJQsqaUBKTNV-1">
          <mxGeometry x="450" y="590" width="220" height="100" as="geometry" />
        </mxCell>
        <mxCell id="yQq68o5WZJDf7F2LKcGU-42" value="" style="endArrow=none;dashed=1;html=1;dashPattern=1 3;strokeWidth=2;rounded=0;" edge="1" parent="WIyWlLk6GJQsqaUBKTNV-1" source="yQq68o5WZJDf7F2LKcGU-40" target="yQq68o5WZJDf7F2LKcGU-35">
          <mxGeometry width="50" height="50" relative="1" as="geometry">
            <mxPoint x="340" y="640" as="sourcePoint" />
            <mxPoint x="390" y="590" as="targetPoint" />
          </mxGeometry>
        </mxCell>
        <mxCell id="yQq68o5WZJDf7F2LKcGU-43" value="对word进行词生图" style="shape=note;whiteSpace=wrap;html=1;backgroundOutline=1;darkOpacity=0.05;" vertex="1" parent="WIyWlLk6GJQsqaUBKTNV-1">
          <mxGeometry x="80" y="530" width="190" height="60" as="geometry" />
        </mxCell>
        <mxCell id="yQq68o5WZJDf7F2LKcGU-44" value="" style="endArrow=none;dashed=1;html=1;dashPattern=1 3;strokeWidth=2;rounded=0;exitX=0.54;exitY=0.02;exitDx=0;exitDy=0;exitPerimeter=0;" edge="1" parent="WIyWlLk6GJQsqaUBKTNV-1" source="yQq68o5WZJDf7F2LKcGU-43" target="yQq68o5WZJDf7F2LKcGU-39">
          <mxGeometry width="50" height="50" relative="1" as="geometry">
            <mxPoint x="180" y="550" as="sourcePoint" />
            <mxPoint x="230" y="500" as="targetPoint" />
          </mxGeometry>
        </mxCell>
        <mxCell id="yQq68o5WZJDf7F2LKcGU-47" value="" style="endArrow=diamondThin;endFill=0;endSize=24;html=1;rounded=0;exitX=1.014;exitY=0;exitDx=0;exitDy=0;exitPerimeter=0;" edge="1" parent="WIyWlLk6GJQsqaUBKTNV-1" source="yQq68o5WZJDf7F2LKcGU-22" target="yQq68o5WZJDf7F2LKcGU-31">
          <mxGeometry width="160" relative="1" as="geometry">
            <mxPoint x="700" y="380" as="sourcePoint" />
            <mxPoint x="860" y="380" as="targetPoint" />
            <Array as="points">
              <mxPoint x="810" y="250" />
              <mxPoint x="810" y="480" />
            </Array>
          </mxGeometry>
        </mxCell>
        <mxCell id="yQq68o5WZJDf7F2LKcGU-48" value="StylePileConfig" style="swimlane;fontStyle=1;align=center;verticalAlign=top;childLayout=stackLayout;horizontal=1;startSize=26;horizontalStack=0;resizeParent=1;resizeParentMax=0;resizeLast=0;collapsible=1;marginBottom=0;" vertex="1" parent="WIyWlLk6GJQsqaUBKTNV-1">
          <mxGeometry x="-140" y="208" width="160" height="60" as="geometry" />
        </mxCell>
        <mxCell id="yQq68o5WZJDf7F2LKcGU-50" value="" style="line;strokeWidth=1;fillColor=none;align=left;verticalAlign=middle;spacingTop=-1;spacingLeft=3;spacingRight=3;rotatable=0;labelPosition=right;points=[];portConstraint=eastwest;strokeColor=inherit;" vertex="1" parent="yQq68o5WZJDf7F2LKcGU-48">
          <mxGeometry y="26" width="160" height="8" as="geometry" />
        </mxCell>
        <mxCell id="yQq68o5WZJDf7F2LKcGU-51" value="configWordTree()" style="text;strokeColor=none;fillColor=none;align=left;verticalAlign=top;spacingLeft=4;spacingRight=4;overflow=hidden;rotatable=0;points=[[0,0.5],[1,0.5]];portConstraint=eastwest;" vertex="1" parent="yQq68o5WZJDf7F2LKcGU-48">
          <mxGeometry y="34" width="160" height="26" as="geometry" />
        </mxCell>
        <mxCell id="yQq68o5WZJDf7F2LKcGU-52" value="" style="endArrow=open;endFill=1;endSize=12;html=1;rounded=0;exitX=1;exitY=0.5;exitDx=0;exitDy=0;" edge="1" parent="WIyWlLk6GJQsqaUBKTNV-1" target="yQq68o5WZJDf7F2LKcGU-19">
          <mxGeometry width="160" relative="1" as="geometry">
            <mxPoint x="20" y="247" as="sourcePoint" />
            <mxPoint x="230" y="230" as="targetPoint" />
          </mxGeometry>
        </mxCell>
        <mxCell id="yQq68o5WZJDf7F2LKcGU-53" value="负责对不同维度的词组装为tree结构" style="shape=note;whiteSpace=wrap;html=1;backgroundOutline=1;darkOpacity=0.05;" vertex="1" parent="WIyWlLk6GJQsqaUBKTNV-1">
          <mxGeometry x="-260" y="330" width="80" height="100" as="geometry" />
        </mxCell>
        <mxCell id="yQq68o5WZJDf7F2LKcGU-54" value="" style="endArrow=none;dashed=1;html=1;dashPattern=1 3;strokeWidth=2;rounded=0;" edge="1" parent="WIyWlLk6GJQsqaUBKTNV-1" source="yQq68o5WZJDf7F2LKcGU-48" target="yQq68o5WZJDf7F2LKcGU-53">
          <mxGeometry width="50" height="50" relative="1" as="geometry">
            <mxPoint x="10" y="110" as="sourcePoint" />
            <mxPoint x="60" y="60" as="targetPoint" />
          </mxGeometry>
        </mxCell>
        <mxCell id="yQq68o5WZJDf7F2LKcGU-59" value="Model" style="swimlane;fontStyle=1;align=center;verticalAlign=top;childLayout=stackLayout;horizontal=1;startSize=26;horizontalStack=0;resizeParent=1;resizeParentMax=0;resizeLast=0;collapsible=1;marginBottom=0;" vertex="1" parent="WIyWlLk6GJQsqaUBKTNV-1">
          <mxGeometry x="-760" y="-180" width="160" height="86" as="geometry" />
        </mxCell>
        <mxCell id="yQq68o5WZJDf7F2LKcGU-60" value="rule: Rule" style="text;strokeColor=none;fillColor=none;align=left;verticalAlign=top;spacingLeft=4;spacingRight=4;overflow=hidden;rotatable=0;points=[[0,0.5],[1,0.5]];portConstraint=eastwest;" vertex="1" parent="yQq68o5WZJDf7F2LKcGU-59">
          <mxGeometry y="26" width="160" height="26" as="geometry" />
        </mxCell>
        <mxCell id="yQq68o5WZJDf7F2LKcGU-61" value="" style="line;strokeWidth=1;fillColor=none;align=left;verticalAlign=middle;spacingTop=-1;spacingLeft=3;spacingRight=3;rotatable=0;labelPosition=right;points=[];portConstraint=eastwest;strokeColor=inherit;" vertex="1" parent="yQq68o5WZJDf7F2LKcGU-59">
          <mxGeometry y="52" width="160" height="8" as="geometry" />
        </mxCell>
        <mxCell id="yQq68o5WZJDf7F2LKcGU-62" value="wordToImage()" style="text;strokeColor=none;fillColor=none;align=left;verticalAlign=top;spacingLeft=4;spacingRight=4;overflow=hidden;rotatable=0;points=[[0,0.5],[1,0.5]];portConstraint=eastwest;" vertex="1" parent="yQq68o5WZJDf7F2LKcGU-59">
          <mxGeometry y="60" width="160" height="26" as="geometry" />
        </mxCell>
        <mxCell id="yQq68o5WZJDf7F2LKcGU-63" value="BaseModel" style="swimlane;fontStyle=1;align=center;verticalAlign=top;childLayout=stackLayout;horizontal=1;startSize=26;horizontalStack=0;resizeParent=1;resizeParentMax=0;resizeLast=0;collapsible=1;marginBottom=0;" vertex="1" parent="WIyWlLk6GJQsqaUBKTNV-1">
          <mxGeometry x="-880" y="20" width="160" height="60" as="geometry" />
        </mxCell>
        <mxCell id="yQq68o5WZJDf7F2LKcGU-65" value="" style="line;strokeWidth=1;fillColor=none;align=left;verticalAlign=middle;spacingTop=-1;spacingLeft=3;spacingRight=3;rotatable=0;labelPosition=right;points=[];portConstraint=eastwest;strokeColor=inherit;" vertex="1" parent="yQq68o5WZJDf7F2LKcGU-63">
          <mxGeometry y="26" width="160" height="8" as="geometry" />
        </mxCell>
        <mxCell id="yQq68o5WZJDf7F2LKcGU-72" value="wordToImage()" style="text;strokeColor=none;fillColor=none;align=left;verticalAlign=top;spacingLeft=4;spacingRight=4;overflow=hidden;rotatable=0;points=[[0,0.5],[1,0.5]];portConstraint=eastwest;" vertex="1" parent="yQq68o5WZJDf7F2LKcGU-63">
          <mxGeometry y="34" width="160" height="26" as="geometry" />
        </mxCell>
        <mxCell id="yQq68o5WZJDf7F2LKcGU-67" value="Extends" style="endArrow=block;endSize=16;endFill=0;html=1;rounded=0;exitX=0.5;exitY=0;exitDx=0;exitDy=0;" edge="1" parent="WIyWlLk6GJQsqaUBKTNV-1" source="yQq68o5WZJDf7F2LKcGU-63" target="yQq68o5WZJDf7F2LKcGU-59">
          <mxGeometry width="160" relative="1" as="geometry">
            <mxPoint x="-610" y="-30" as="sourcePoint" />
            <mxPoint x="-450" y="-30" as="targetPoint" />
          </mxGeometry>
        </mxCell>
        <mxCell id="yQq68o5WZJDf7F2LKcGU-68" value="OtherModel" style="swimlane;fontStyle=1;align=center;verticalAlign=top;childLayout=stackLayout;horizontal=1;startSize=26;horizontalStack=0;resizeParent=1;resizeParentMax=0;resizeLast=0;collapsible=1;marginBottom=0;" vertex="1" parent="WIyWlLk6GJQsqaUBKTNV-1">
          <mxGeometry x="-650" y="20" width="160" height="60" as="geometry" />
        </mxCell>
        <mxCell id="yQq68o5WZJDf7F2LKcGU-70" value="" style="line;strokeWidth=1;fillColor=none;align=left;verticalAlign=middle;spacingTop=-1;spacingLeft=3;spacingRight=3;rotatable=0;labelPosition=right;points=[];portConstraint=eastwest;strokeColor=inherit;" vertex="1" parent="yQq68o5WZJDf7F2LKcGU-68">
          <mxGeometry y="26" width="160" height="8" as="geometry" />
        </mxCell>
        <mxCell id="yQq68o5WZJDf7F2LKcGU-73" value="wordToImage()" style="text;strokeColor=none;fillColor=none;align=left;verticalAlign=top;spacingLeft=4;spacingRight=4;overflow=hidden;rotatable=0;points=[[0,0.5],[1,0.5]];portConstraint=eastwest;" vertex="1" parent="yQq68o5WZJDf7F2LKcGU-68">
          <mxGeometry y="34" width="160" height="26" as="geometry" />
        </mxCell>
        <mxCell id="yQq68o5WZJDf7F2LKcGU-74" value="Extends" style="endArrow=block;endSize=16;endFill=0;html=1;rounded=0;exitX=0.5;exitY=0;exitDx=0;exitDy=0;" edge="1" parent="WIyWlLk6GJQsqaUBKTNV-1" source="yQq68o5WZJDf7F2LKcGU-68" target="yQq68o5WZJDf7F2LKcGU-59">
          <mxGeometry width="160" relative="1" as="geometry">
            <mxPoint x="-540" y="-10" as="sourcePoint" />
            <mxPoint x="-380" y="-10" as="targetPoint" />
          </mxGeometry>
        </mxCell>
        <mxCell id="yQq68o5WZJDf7F2LKcGU-75" value="Rule" style="swimlane;fontStyle=1;align=center;verticalAlign=top;childLayout=stackLayout;horizontal=1;startSize=26;horizontalStack=0;resizeParent=1;resizeParentMax=0;resizeLast=0;collapsible=1;marginBottom=0;" vertex="1" parent="WIyWlLk6GJQsqaUBKTNV-1">
          <mxGeometry x="-80" y="-180" width="160" height="86" as="geometry" />
        </mxCell>
        <mxCell id="yQq68o5WZJDf7F2LKcGU-76" value="+ field: type" style="text;strokeColor=none;fillColor=none;align=left;verticalAlign=top;spacingLeft=4;spacingRight=4;overflow=hidden;rotatable=0;points=[[0,0.5],[1,0.5]];portConstraint=eastwest;" vertex="1" parent="yQq68o5WZJDf7F2LKcGU-75">
          <mxGeometry y="26" width="160" height="26" as="geometry" />
        </mxCell>
        <mxCell id="yQq68o5WZJDf7F2LKcGU-77" value="" style="line;strokeWidth=1;fillColor=none;align=left;verticalAlign=middle;spacingTop=-1;spacingLeft=3;spacingRight=3;rotatable=0;labelPosition=right;points=[];portConstraint=eastwest;strokeColor=inherit;" vertex="1" parent="yQq68o5WZJDf7F2LKcGU-75">
          <mxGeometry y="52" width="160" height="8" as="geometry" />
        </mxCell>
        <mxCell id="yQq68o5WZJDf7F2LKcGU-78" value="+ method(type): type" style="text;strokeColor=none;fillColor=none;align=left;verticalAlign=top;spacingLeft=4;spacingRight=4;overflow=hidden;rotatable=0;points=[[0,0.5],[1,0.5]];portConstraint=eastwest;" vertex="1" parent="yQq68o5WZJDf7F2LKcGU-75">
          <mxGeometry y="60" width="160" height="26" as="geometry" />
        </mxCell>
        <mxCell id="yQq68o5WZJDf7F2LKcGU-79" value="1" style="endArrow=open;html=1;endSize=12;startArrow=diamondThin;startSize=14;startFill=0;edgeStyle=orthogonalEdgeStyle;align=left;verticalAlign=bottom;rounded=0;" edge="1" parent="WIyWlLk6GJQsqaUBKTNV-1" source="yQq68o5WZJDf7F2LKcGU-59" target="yQq68o5WZJDf7F2LKcGU-75">
          <mxGeometry x="-1" y="3" relative="1" as="geometry">
            <mxPoint x="-430" y="-170" as="sourcePoint" />
            <mxPoint x="-270" y="-170" as="targetPoint" />
          </mxGeometry>
        </mxCell>
        <mxCell id="yQq68o5WZJDf7F2LKcGU-80" value="Classname" style="swimlane;fontStyle=1;align=center;verticalAlign=top;childLayout=stackLayout;horizontal=1;startSize=26;horizontalStack=0;resizeParent=1;resizeParentMax=0;resizeLast=0;collapsible=1;marginBottom=0;" vertex="1" parent="WIyWlLk6GJQsqaUBKTNV-1">
          <mxGeometry x="-210" y="-9" width="160" height="86" as="geometry" />
        </mxCell>
        <mxCell id="yQq68o5WZJDf7F2LKcGU-81" value="+ field: type" style="text;strokeColor=none;fillColor=none;align=left;verticalAlign=top;spacingLeft=4;spacingRight=4;overflow=hidden;rotatable=0;points=[[0,0.5],[1,0.5]];portConstraint=eastwest;" vertex="1" parent="yQq68o5WZJDf7F2LKcGU-80">
          <mxGeometry y="26" width="160" height="26" as="geometry" />
        </mxCell>
        <mxCell id="yQq68o5WZJDf7F2LKcGU-82" value="" style="line;strokeWidth=1;fillColor=none;align=left;verticalAlign=middle;spacingTop=-1;spacingLeft=3;spacingRight=3;rotatable=0;labelPosition=right;points=[];portConstraint=eastwest;strokeColor=inherit;" vertex="1" parent="yQq68o5WZJDf7F2LKcGU-80">
          <mxGeometry y="52" width="160" height="8" as="geometry" />
        </mxCell>
        <mxCell id="yQq68o5WZJDf7F2LKcGU-83" value="+ method(type): type" style="text;strokeColor=none;fillColor=none;align=left;verticalAlign=top;spacingLeft=4;spacingRight=4;overflow=hidden;rotatable=0;points=[[0,0.5],[1,0.5]];portConstraint=eastwest;" vertex="1" parent="yQq68o5WZJDf7F2LKcGU-80">
          <mxGeometry y="60" width="160" height="26" as="geometry" />
        </mxCell>
        <mxCell id="yQq68o5WZJDf7F2LKcGU-84" value="Classname" style="swimlane;fontStyle=1;align=center;verticalAlign=top;childLayout=stackLayout;horizontal=1;startSize=26;horizontalStack=0;resizeParent=1;resizeParentMax=0;resizeLast=0;collapsible=1;marginBottom=0;" vertex="1" parent="WIyWlLk6GJQsqaUBKTNV-1">
          <mxGeometry x="80" y="-9" width="160" height="86" as="geometry" />
        </mxCell>
        <mxCell id="yQq68o5WZJDf7F2LKcGU-85" value="+ field: type" style="text;strokeColor=none;fillColor=none;align=left;verticalAlign=top;spacingLeft=4;spacingRight=4;overflow=hidden;rotatable=0;points=[[0,0.5],[1,0.5]];portConstraint=eastwest;" vertex="1" parent="yQq68o5WZJDf7F2LKcGU-84">
          <mxGeometry y="26" width="160" height="26" as="geometry" />
        </mxCell>
        <mxCell id="yQq68o5WZJDf7F2LKcGU-86" value="" style="line;strokeWidth=1;fillColor=none;align=left;verticalAlign=middle;spacingTop=-1;spacingLeft=3;spacingRight=3;rotatable=0;labelPosition=right;points=[];portConstraint=eastwest;strokeColor=inherit;" vertex="1" parent="yQq68o5WZJDf7F2LKcGU-84">
          <mxGeometry y="52" width="160" height="8" as="geometry" />
        </mxCell>
        <mxCell id="yQq68o5WZJDf7F2LKcGU-87" value="+ method(type): type" style="text;strokeColor=none;fillColor=none;align=left;verticalAlign=top;spacingLeft=4;spacingRight=4;overflow=hidden;rotatable=0;points=[[0,0.5],[1,0.5]];portConstraint=eastwest;" vertex="1" parent="yQq68o5WZJDf7F2LKcGU-84">
          <mxGeometry y="60" width="160" height="26" as="geometry" />
        </mxCell>
        <mxCell id="yQq68o5WZJDf7F2LKcGU-88" value="Extends" style="endArrow=block;endSize=16;endFill=0;html=1;rounded=0;" edge="1" parent="WIyWlLk6GJQsqaUBKTNV-1" source="yQq68o5WZJDf7F2LKcGU-80" target="yQq68o5WZJDf7F2LKcGU-75">
          <mxGeometry width="160" relative="1" as="geometry">
            <mxPoint x="-210" y="-50" as="sourcePoint" />
            <mxPoint x="-50" y="-50" as="targetPoint" />
          </mxGeometry>
        </mxCell>
        <mxCell id="yQq68o5WZJDf7F2LKcGU-90" value="Extends" style="endArrow=block;endSize=16;endFill=0;html=1;rounded=0;" edge="1" parent="WIyWlLk6GJQsqaUBKTNV-1" source="yQq68o5WZJDf7F2LKcGU-84" target="yQq68o5WZJDf7F2LKcGU-75">
          <mxGeometry width="160" relative="1" as="geometry">
            <mxPoint x="150" y="-100" as="sourcePoint" />
            <mxPoint x="310" y="-100" as="targetPoint" />
          </mxGeometry>
        </mxCell>
      </root>
    </mxGraphModel>
  </diagram>
</mxfile>
